<?xml version="1.0" encoding="UTF-8" standalone="no"?>
<!-- Generator: Adobe Illustrator 16.0.0, SVG Export Plug-In . SVG Version: 6.00 Build 0)  -->

<svg
   version="1.1"
   id="Capa_1"
   x="0px"
   y="0px"
   width="960px"
   height="560px"
   viewBox="0 0 960 560"
   enable-background="new 0 0 960 560"
   xml:space="preserve"
   sodipodi:docname="logo.svg"
   inkscape:version="1.3.2 (091e20e, 2023-11-25, custom)"
   xmlns:inkscape="http://www.inkscape.org/namespaces/inkscape"
   xmlns:sodipodi="http://sodipodi.sourceforge.net/DTD/sodipodi-0.dtd"
   xmlns="http://www.w3.org/2000/svg"
   xmlns:svg="http://www.w3.org/2000/svg"><defs
   id="defs1"><filter
     style="color-interpolation-filters:sRGB;"
     inkscape:label="Color Shift"
     id="filter6"
     x="0"
     y="0"
     width="1"
     height="1"><feColorMatrix
       type="hueRotate"
       values="103"
       result="color1"
       id="feColorMatrix5" /><feColorMatrix
       type="saturate"
       values="1"
       result="color2"
       id="feColorMatrix6" /></filter></defs><sodipodi:namedview
   id="namedview1"
   pagecolor="#ffffff"
   bordercolor="#000000"
   borderopacity="0.25"
   inkscape:showpageshadow="2"
   inkscape:pageopacity="0.0"
   inkscape:pagecheckerboard="0"
   inkscape:deskcolor="#d1d1d1"
   inkscape:zoom="1.0334071"
   inkscape:cx="472.70819"
   inkscape:cy="290.78569"
   inkscape:window-width="1920"
   inkscape:window-height="1017"
   inkscape:window-x="-8"
   inkscape:window-y="-8"
   inkscape:window-maximized="1"
   inkscape:current-layer="Capa_1"
   showguides="false" />

<path
   style="fill:#7611ff;fill-opacity:1;stroke-width:1.53087"
   d="m 850.4768,553.74784 c -4.387,-1.57108 -10.98907,-4.87725 -14.67129,-7.34698 -3.68225,-2.46975 -82.42332,-80.39687 -174.98018,-173.1714 -92.55686,-92.77455 -168.88435,-168.67783 -169.61668,-168.67402 -0.73236,0.003 -76.8019,75.58197 -169.04347,167.95138 -92.24157,92.36943 -170.8749,170.21769 -174.74074,172.99613 -8.6836,6.24105 -23.98306,11.21657 -34.7737,11.3087 C 93.13517,556.97831 72.24128,545.97949 61.025769,529.6356 52.227139,516.81373 49.435957,506.7574 50.091389,490.24017 51.118879,464.34736 35.260845,482.04376 253.3138,263.45876 359.43053,157.08313 449.47117,67.892058 453.40416,65.25639 c 11.08413,-7.427952 20.28126,-9.921476 37.12496,-10.065305 16.35078,-0.139701 27.35659,2.58941 37.95266,9.410861 3.31657,2.135117 92.55883,90.553224 198.31611,196.484704 221.58821,221.95317 204.67491,202.79284 204.92561,232.15091 0.1279,14.9763 -0.2137,16.93436 -4.5598,26.13621 -6.8605,14.52579 -15.3989,23.41289 -29.0659,30.2531 -10.378,5.19408 -12.9952,5.84643 -25.6022,6.38149 -10.9421,0.46442 -15.8037,-0.0347 -22.0188,-2.26052 z"
   id="path2-2" /><path
   style="fill:#ad80ff;fill-opacity:1;stroke-width:1.45797"
   d="m 768.38987,515.95055 c -4.17807,-1.49626 -10.46577,-4.645 -13.97264,-6.99712 -3.50691,-2.35214 -78.4984,-76.56845 -166.64779,-164.92514 -88.14939,-88.35672 -160.84224,-160.64556 -161.5397,-160.64193 -0.69748,0.003 -73.14466,71.98283 -160.99378,159.9537 -87.84911,87.97088 -162.73799,162.11208 -166.41974,164.75822 -8.2701,5.94385 -22.84101,10.68244 -33.11781,10.77019 C 47.11215,519.02719 27.213212,508.55212 16.531772,492.98651 8.152127,480.77521 5.493857,471.19775 6.118082,455.46706 7.096637,430.80724 -8.006248,447.66095 199.66322,239.48476 300.72677,138.17464 386.47976,53.230763 390.22547,50.720603 c 10.55631,-7.07424 19.31548,-9.449025 35.3571,-9.586005 15.57217,-0.13305 26.0539,2.466105 36.14539,8.962725 3.15864,2.033445 88.15127,86.241167 188.87249,187.128287 211.03641,211.38397 194.92851,193.13604 195.16725,221.0961 0.1218,14.26315 -0.20355,16.12797 -4.34262,24.89163 -6.53385,13.83409 -14.66564,22.29799 -27.68189,28.81248 -9.88381,4.94674 -12.37639,5.56803 -24.38305,6.07761 -10.42098,0.4423 -15.05106,-0.033 -20.97027,-2.15288 z"
   id="path2" /><path
   style="fill:#ffffff;fill-opacity:1;stroke-width:0.967673"
   d=""
   id="path9" /></svg>
